<svg width="336" height="67" viewBox="0 0 336 67" fill="none" xmlns="http://www.w3.org/2000/svg">
<mask id="path-1-outside-1_15_23" maskUnits="userSpaceOnUse" x="-1" y="-1" width="338" height="69" fill="black">
<rect fill="white" x="-1" y="-1" width="338" height="69"/>
<path d="M18 0.299994H2.3C1.1 0.299994 0.1 1.3 0.1 2.5V64.8C0.1 66 1.1 67 2.3 67H16.9C18.6 67 20.4 67 22.1 66.6C27 65.5 30.7 62.4 33 58.7C34.5 56.5 35.2 54.3 35.2 50.8V43C35.2 37.7 32.5 34.3 29 32.2C28.8 32.1 28.8 31.7 29 31.6C32.6 29.8 35.2 26.2 35.2 21.1V16C35.2 11.3 34 8.5 31.6 6.1C28.4 3.09999 24.1 0.299994 18 0.299994ZM17.3 27.7H13C11.8 27.7 10.8 26.7 10.8 25.5V11.5C10.8 10.3 11.8 9.3 13 9.3H17L18.7 9.4C19.5 9.6 20.2 9.7 20.9 10.1C23 11.3 24.5 12.7 24.5 16V20.1C24.5 23.1 23.6 25.6 21.5 26.7L19.7 27.4C19.7 27.5 19.4 27.5 19.4 27.6C18.7 27.7 18 27.7 17.3 27.7ZM17.1 57.5H13C11.8 57.5 10.8 56.5 10.8 55.3V38.3C10.8 37.1 11.8 36.1 13 36.1H17L18.7 36.2C18.8 36.2 19.2 36.3 19.2 36.3C19.9 36.4 20.5 36.6 21 36.9C23.1 38 24.5 39.8 24.5 43V50.8L24.4 52.1C24.4 52.2 24.3 52.8 24.2 52.9L23.8 54C23.7 54 23.6 54.3 23.6 54.3C22.3 56.2 20.2 57.5 17.1 57.5ZM214.102 67H220.602C221.802 67 222.802 66 222.802 64.8V40.6C222.802 39.4 223.802 38.4 225.002 38.4H228.102C228.902 38.4 229.902 39.1 230.102 39.9L239.402 65.5C239.602 66.3 240.602 67 241.402 67H248.202C249.902 67 250.902 65.6 250.302 64L240.602 38.2C240.202 37.3 240.802 35.9 241.602 35.4C246.402 32.1 248.802 27.8 248.802 22.3V16.1C248.802 6.9 240.502 0.299994 231.002 0.299994H214.102C212.902 0.299994 211.902 1.3 211.902 2.5V64.8C211.902 66 212.902 67 214.102 67ZM230.402 30H225.002C223.802 30 222.802 29 222.802 27.8V11.4C222.802 10.2 223.802 9.2 225.002 9.2H230.502C235.102 9.2 237.902 11.8 237.902 16.1V22.3C237.902 26.3 235.802 30 230.402 30Z"/>
<path d="M44.8617 67H51.7617C52.7617 67 53.7617 66.2 53.9617 65.3L56.2617 54.4C56.4617 53.5 57.4617 52.7 58.4617 52.7H68.9617C69.9617 52.7 70.9617 53.5 71.1617 54.4L73.4617 65.3C73.6617 66.2 74.6617 67 75.6617 67H82.6617C84.1617 67 85.1617 65.7 84.7617 64.3L68.8617 2C68.6617 1.1 67.6617 0.299994 66.7617 0.299994H60.7617C59.8617 0.299994 58.8617 1.1 58.6617 2L42.7617 64.3C42.3617 65.7 43.3617 67 44.8617 67ZM59.1617 41.1L61.5617 29.7C62.0617 27.4 65.4617 27.4 65.8617 29.7L68.2617 41.1C68.5617 42.6 67.6617 43.8 66.1617 43.8H61.2617C59.8617 43.8 58.8617 42.6 59.1617 41.1ZM261.387 67H267.687C268.887 67 269.887 66 269.887 64.8V2.5C269.887 1.3 268.887 0.299994 267.687 0.299994H261.387C260.187 0.299994 259.187 1.3 259.187 2.5V64.8C259.187 66 260.187 67 261.387 67Z"/>
<path d="M124.385 64.8V59.6C124.385 58.4 123.385 57.4 122.185 57.4H105.085C103.885 57.4 102.885 56.4 102.885 55.2V2.5C102.885 1.3 101.885 0.299994 100.685 0.299994H94.2852C93.0852 0.299994 92.0852 1.3 92.0852 2.5V64.8C92.0852 66 93.0852 67 94.2852 67H122.185C123.385 67 124.385 66 124.385 64.8ZM307.823 67H314.223C315.423 67 316.423 66 316.423 64.8V2.5C316.423 1.3 315.423 0.299994 314.223 0.299994H307.823C306.623 0.299994 305.623 1.3 305.623 2.5V29.7C305.623 32.1 302.323 32.7 301.423 30.6L289.323 1.69999C289.023 0.999997 288.023 0.299994 287.223 0.299994H280.723C279.523 0.299994 278.523 1.3 278.523 2.5V64.8C278.523 66 279.523 67 280.723 67H287.123C288.323 67 289.323 66 289.323 64.8V37.4C289.323 35.1 292.623 34.4 293.523 36.6L305.723 65.7C306.023 66.3 307.023 67 307.823 67Z"/>
<path d="M164.327 64.8V59.6C164.327 58.4 163.327 57.4 162.127 57.4H145.027C143.827 57.4 142.827 56.4 142.827 55.2V2.5C142.827 1.3 141.827 0.299994 140.627 0.299994H134.227C133.027 0.299994 132.027 1.3 132.027 2.5V64.8C132.027 66 133.027 67 134.227 67H162.127C163.327 67 164.327 66 164.327 64.8ZM327.207 67H333.507C334.707 67 335.707 66 335.707 64.8V2.5C335.707 1.3 334.707 0.299994 333.507 0.299994H327.207C326.007 0.299994 325.007 1.3 325.007 2.5V64.8C325.007 66 326.007 67 327.207 67Z"/>
<path d="M202.368 57.4H184.968C183.768 57.4 182.768 56.4 182.768 55.2V40C182.768 38.8 183.768 37.8 184.968 37.8H199.668C200.868 37.8 201.868 36.8 201.868 35.6V31C201.868 29.8 200.868 28.8 199.668 28.8H184.968C183.768 28.8 182.768 27.8 182.768 26.6V11.3C182.768 10.1 183.768 9.09999 184.968 9.09999H202.368C203.568 9.09999 204.568 8.1 204.568 6.9V2.5C204.568 1.3 203.568 0.299994 202.368 0.299994H174.268C173.068 0.299994 172.068 1.3 172.068 2.5V64.8C172.068 66 173.068 67 174.268 67H202.368C203.568 67 204.568 66 204.568 64.8V59.6C204.568 58.4 203.568 57.4 202.368 57.4Z"/>
</mask>
<path d="M18 0.299994H2.3C1.1 0.299994 0.1 1.3 0.1 2.5V64.8C0.1 66 1.1 67 2.3 67H16.9C18.6 67 20.4 67 22.1 66.6C27 65.5 30.7 62.4 33 58.7C34.5 56.5 35.2 54.3 35.2 50.8V43C35.2 37.7 32.5 34.3 29 32.2C28.8 32.1 28.8 31.7 29 31.6C32.6 29.8 35.2 26.2 35.2 21.1V16C35.2 11.3 34 8.5 31.6 6.1C28.4 3.09999 24.1 0.299994 18 0.299994ZM17.3 27.7H13C11.8 27.7 10.8 26.7 10.8 25.5V11.5C10.8 10.3 11.8 9.3 13 9.3H17L18.7 9.4C19.5 9.6 20.2 9.7 20.9 10.1C23 11.3 24.5 12.7 24.5 16V20.1C24.5 23.1 23.6 25.6 21.5 26.7L19.7 27.4C19.7 27.5 19.4 27.5 19.4 27.6C18.7 27.7 18 27.7 17.3 27.7ZM17.1 57.5H13C11.8 57.5 10.8 56.5 10.8 55.3V38.3C10.8 37.1 11.8 36.1 13 36.1H17L18.7 36.2C18.8 36.2 19.2 36.3 19.2 36.3C19.9 36.4 20.5 36.6 21 36.9C23.1 38 24.5 39.8 24.5 43V50.8L24.4 52.1C24.4 52.2 24.3 52.8 24.2 52.9L23.8 54C23.7 54 23.6 54.3 23.6 54.3C22.3 56.2 20.2 57.5 17.1 57.5ZM214.102 67H220.602C221.802 67 222.802 66 222.802 64.8V40.6C222.802 39.4 223.802 38.4 225.002 38.4H228.102C228.902 38.4 229.902 39.1 230.102 39.9L239.402 65.5C239.602 66.3 240.602 67 241.402 67H248.202C249.902 67 250.902 65.6 250.302 64L240.602 38.2C240.202 37.3 240.802 35.9 241.602 35.4C246.402 32.1 248.802 27.8 248.802 22.3V16.1C248.802 6.9 240.502 0.299994 231.002 0.299994H214.102C212.902 0.299994 211.902 1.3 211.902 2.5V64.8C211.902 66 212.902 67 214.102 67ZM230.402 30H225.002C223.802 30 222.802 29 222.802 27.8V11.4C222.802 10.2 223.802 9.2 225.002 9.2H230.502C235.102 9.2 237.902 11.8 237.902 16.1V22.3C237.902 26.3 235.802 30 230.402 30Z" fill="#FEAFBE"/>
<path d="M44.8617 67H51.7617C52.7617 67 53.7617 66.2 53.9617 65.3L56.2617 54.4C56.4617 53.5 57.4617 52.7 58.4617 52.7H68.9617C69.9617 52.7 70.9617 53.5 71.1617 54.4L73.4617 65.3C73.6617 66.2 74.6617 67 75.6617 67H82.6617C84.1617 67 85.1617 65.7 84.7617 64.3L68.8617 2C68.6617 1.1 67.6617 0.299994 66.7617 0.299994H60.7617C59.8617 0.299994 58.8617 1.1 58.6617 2L42.7617 64.3C42.3617 65.7 43.3617 67 44.8617 67ZM59.1617 41.1L61.5617 29.7C62.0617 27.4 65.4617 27.4 65.8617 29.7L68.2617 41.1C68.5617 42.6 67.6617 43.8 66.1617 43.8H61.2617C59.8617 43.8 58.8617 42.6 59.1617 41.1ZM261.387 67H267.687C268.887 67 269.887 66 269.887 64.8V2.5C269.887 1.3 268.887 0.299994 267.687 0.299994H261.387C260.187 0.299994 259.187 1.3 259.187 2.5V64.8C259.187 66 260.187 67 261.387 67Z" fill="#B3DFD3"/>
<path d="M124.385 64.8V59.6C124.385 58.4 123.385 57.4 122.185 57.4H105.085C103.885 57.4 102.885 56.4 102.885 55.2V2.5C102.885 1.3 101.885 0.299994 100.685 0.299994H94.2852C93.0852 0.299994 92.0852 1.3 92.0852 2.5V64.8C92.0852 66 93.0852 67 94.2852 67H122.185C123.385 67 124.385 66 124.385 64.8ZM307.823 67H314.223C315.423 67 316.423 66 316.423 64.8V2.5C316.423 1.3 315.423 0.299994 314.223 0.299994H307.823C306.623 0.299994 305.623 1.3 305.623 2.5V29.7C305.623 32.1 302.323 32.7 301.423 30.6L289.323 1.69999C289.023 0.999997 288.023 0.299994 287.223 0.299994H280.723C279.523 0.299994 278.523 1.3 278.523 2.5V64.8C278.523 66 279.523 67 280.723 67H287.123C288.323 67 289.323 66 289.323 64.8V37.4C289.323 35.1 292.623 34.4 293.523 36.6L305.723 65.7C306.023 66.3 307.023 67 307.823 67Z" fill="#A45A49"/>
<path d="M164.327 64.8V59.6C164.327 58.4 163.327 57.4 162.127 57.4H145.027C143.827 57.4 142.827 56.4 142.827 55.2V2.5C142.827 1.3 141.827 0.299994 140.627 0.299994H134.227C133.027 0.299994 132.027 1.3 132.027 2.5V64.8C132.027 66 133.027 67 134.227 67H162.127C163.327 67 164.327 66 164.327 64.8ZM327.207 67H333.507C334.707 67 335.707 66 335.707 64.8V2.5C335.707 1.3 334.707 0.299994 333.507 0.299994H327.207C326.007 0.299994 325.007 1.3 325.007 2.5V64.8C325.007 66 326.007 67 327.207 67Z" fill="#EFC764"/>
<path d="M202.368 57.4H184.968C183.768 57.4 182.768 56.4 182.768 55.2V40C182.768 38.8 183.768 37.8 184.968 37.8H199.668C200.868 37.8 201.868 36.8 201.868 35.6V31C201.868 29.8 200.868 28.8 199.668 28.8H184.968C183.768 28.8 182.768 27.8 182.768 26.6V11.3C182.768 10.1 183.768 9.09999 184.968 9.09999H202.368C203.568 9.09999 204.568 8.1 204.568 6.9V2.5C204.568 1.3 203.568 0.299994 202.368 0.299994H174.268C173.068 0.299994 172.068 1.3 172.068 2.5V64.8C172.068 66 173.068 67 174.268 67H202.368C203.568 67 204.568 66 204.568 64.8V59.6C204.568 58.4 203.568 57.4 202.368 57.4Z" fill="#97D4D9"/>
<path d="M22.1 66.6L21.881 65.6242L21.871 65.6266L22.1 66.6ZM33 58.7L32.1738 58.1367L32.1619 58.1541L32.1507 58.1721L33 58.7ZM29 32.2L29.5145 31.3425L29.4816 31.3227L29.4472 31.3056L29 32.2ZM29 31.6L29.4472 32.4944L29.4472 32.4944L29 31.6ZM31.6 6.1L32.3071 5.39289L32.2957 5.38149L32.2839 5.37046L31.6 6.1ZM17 9.3L17.0587 8.30172L17.0294 8.3H17V9.3ZM18.7 9.4L18.9425 8.42985L18.8519 8.40721L18.7587 8.40172L18.7 9.4ZM20.9 10.1L20.4039 10.9682L20.4039 10.9682L20.9 10.1ZM21.5 26.7L21.8624 27.632L21.9145 27.6118L21.964 27.5858L21.5 26.7ZM19.7 27.4L19.3376 26.468L18.7 26.7159V27.4H19.7ZM19.4 27.6L19.5414 28.5899L20.4 28.4673V27.6H19.4ZM17 36.1L17.0587 35.1017L17.0294 35.1H17V36.1ZM18.7 36.2L18.6413 37.1983L18.6706 37.2H18.7V36.2ZM19.2 36.3L18.9575 37.2701L19.0075 37.2827L19.0586 37.2899L19.2 36.3ZM21 36.9L20.4855 37.7575L20.5103 37.7724L20.536 37.7858L21 36.9ZM24.5 50.8L25.4971 50.8767L25.5 50.8384V50.8H24.5ZM24.4 52.1L23.4029 52.0233L23.4 52.0616V52.1H24.4ZM24.2 52.9L23.4929 52.1929L23.336 52.3498L23.2602 52.5583L24.2 52.9ZM23.8 54V55H24.5004L24.7398 54.3417L23.8 54ZM23.6 54.3L24.4253 54.8647L24.5044 54.7491L24.5487 54.6162L23.6 54.3ZM18 -0.700006H2.3V1.29999H18V-0.700006ZM2.3 -0.700006C0.547714 -0.700006 -0.9 0.747717 -0.9 2.5H1.1C1.1 1.85228 1.65229 1.29999 2.3 1.29999V-0.700006ZM-0.9 2.5V64.8H1.1V2.5H-0.9ZM-0.9 64.8C-0.9 66.5523 0.547715 68 2.3 68V66C1.65229 66 1.1 65.4477 1.1 64.8H-0.9ZM2.3 68H16.9V66H2.3V68ZM16.9 68C18.5789 68 20.4969 68.0045 22.329 67.5734L21.871 65.6266C20.3031 65.9955 18.6211 66 16.9 66V68ZM22.319 67.5757C27.5188 66.4084 31.4298 63.1202 33.8493 59.2279L32.1507 58.1721C29.9702 61.6798 26.4812 64.5916 21.881 65.6243L22.319 67.5757ZM33.8262 59.2633C35.4544 56.8754 36.2 54.4728 36.2 50.8H34.2C34.2 54.1272 33.5456 56.1246 32.1738 58.1367L33.8262 59.2633ZM36.2 50.8V43H34.2V50.8H36.2ZM36.2 43C36.2 37.283 33.2547 33.5866 29.5145 31.3425L28.4855 33.0575C31.7453 35.0134 34.2 38.117 34.2 43H36.2ZM29.4472 31.3056C29.6429 31.4034 29.7455 31.5528 29.7923 31.6523C29.8385 31.7504 29.85 31.8365 29.85 31.9C29.85 31.9635 29.8385 32.0496 29.7923 32.1477C29.7455 32.2472 29.6429 32.3966 29.4472 32.4944L28.5528 30.7056C27.9696 30.9972 27.85 31.5905 27.85 31.9C27.85 32.2095 27.9696 32.8028 28.5528 33.0944L29.4472 31.3056ZM29.4472 32.4944C33.3798 30.5281 36.2 26.5856 36.2 21.1H34.2C34.2 25.8144 31.8202 29.0719 28.5528 30.7056L29.4472 32.4944ZM36.2 21.1V16H34.2V21.1H36.2ZM36.2 16C36.2 11.0817 34.9254 8.01119 32.3071 5.39289L30.8929 6.8071C33.0746 8.9888 34.2 11.5183 34.2 16H36.2ZM32.2839 5.37046C28.9798 2.27286 24.447 -0.700006 18 -0.700006V1.29999C23.753 1.29999 27.8202 3.92712 30.9161 6.82953L32.2839 5.37046ZM17.3 26.7H13V28.7H17.3V26.7ZM13 26.7C12.3523 26.7 11.8 26.1477 11.8 25.5H9.8C9.8 27.2523 11.2477 28.7 13 28.7V26.7ZM11.8 25.5V11.5H9.8V25.5H11.8ZM11.8 11.5C11.8 10.8523 12.3523 10.3 13 10.3V8.3C11.2477 8.3 9.8 9.74771 9.8 11.5H11.8ZM13 10.3H17V8.3H13V10.3ZM16.9413 10.2983L18.6413 10.3983L18.7587 8.40172L17.0587 8.30172L16.9413 10.2983ZM18.4575 10.3701C19.376 10.5998 19.8611 10.6581 20.4039 10.9682L21.3961 9.23176C20.5389 8.74193 19.624 8.60022 18.9425 8.42985L18.4575 10.3701ZM20.4039 10.9682C21.4082 11.5422 22.1564 12.1033 22.6677 12.8352C23.1653 13.5474 23.5 14.5115 23.5 16H25.5C25.5 14.1885 25.0847 12.8026 24.3073 11.6898C23.5436 10.5967 22.4918 9.85783 21.3961 9.23176L20.4039 10.9682ZM23.5 16V20.1H25.5V16H23.5ZM23.5 20.1C23.5 22.9693 22.637 24.9756 21.036 25.8142L21.964 27.5858C24.5631 26.2244 25.5 23.2307 25.5 20.1H23.5ZM21.1376 25.768L19.3376 26.468L20.0624 28.332L21.8624 27.632L21.1376 25.768ZM18.7 27.4C18.7 27.2775 18.7237 27.158 18.7676 27.0477C18.8106 26.9396 18.8676 26.8541 18.9214 26.79C19.0223 26.6699 19.1264 26.608 19.1675 26.5852C19.2141 26.5593 19.2484 26.5466 19.2517 26.5454C19.2559 26.5438 19.2564 26.5438 19.2338 26.5513C19.2189 26.5563 19.1809 26.5688 19.1415 26.5837C19.1031 26.5982 19.0359 26.625 18.9612 26.6665C18.8921 26.7049 18.7645 26.7839 18.6472 26.9236C18.5851 26.9975 18.5218 27.0933 18.4743 27.2124C18.426 27.3337 18.4 27.465 18.4 27.6H20.4C20.4 27.7225 20.3763 27.842 20.3324 27.9523C20.2894 28.0604 20.2324 28.1459 20.1786 28.21C20.0777 28.3301 19.9736 28.392 19.9325 28.4148C19.8859 28.4407 19.8516 28.4534 19.8483 28.4546C19.8441 28.4562 19.8437 28.4562 19.8662 28.4487C19.8812 28.4437 19.9191 28.4312 19.9585 28.4163C19.9969 28.4018 20.0641 28.375 20.1388 28.3335C20.208 28.2951 20.3355 28.216 20.4528 28.0764C20.5149 28.0025 20.5782 27.9067 20.6257 27.7876C20.674 27.6663 20.7 27.535 20.7 27.4H18.7ZM19.2586 26.61C18.6405 26.6983 18.0115 26.7 17.3 26.7V28.7C17.9885 28.7 18.7595 28.7017 19.5414 28.5899L19.2586 26.61ZM17.1 56.5H13V58.5H17.1V56.5ZM13 56.5C12.3523 56.5 11.8 55.9477 11.8 55.3H9.8C9.8 57.0523 11.2477 58.5 13 58.5V56.5ZM11.8 55.3V38.3H9.8V55.3H11.8ZM11.8 38.3C11.8 37.6523 12.3523 37.1 13 37.1V35.1C11.2477 35.1 9.8 36.5477 9.8 38.3H11.8ZM13 37.1H17V35.1H13V37.1ZM16.9413 37.0983L18.6413 37.1983L18.7587 35.2017L17.0587 35.1017L16.9413 37.0983ZM18.7 37.2C18.6678 37.2 18.6444 37.1981 18.6355 37.1974C18.6249 37.1964 18.6186 37.1956 18.618 37.1955C18.6175 37.1954 18.6246 37.1964 18.6414 37.1995C18.6748 37.2056 18.72 37.2149 18.7706 37.2262C18.8197 37.2371 18.867 37.2482 18.9026 37.2568C18.9202 37.261 18.9344 37.2645 18.9441 37.2668C18.9489 37.268 18.9525 37.2689 18.9548 37.2695C18.956 37.2698 18.9568 37.27 18.9572 37.2701C18.9575 37.2701 18.9576 37.2702 18.9576 37.2702C18.9576 37.2702 18.9576 37.2702 18.9576 37.2702C18.9576 37.2702 18.9576 37.2702 18.9576 37.2702C18.9575 37.2702 18.9575 37.2702 18.9575 37.2702C18.9575 37.2701 18.9575 37.2701 19.2 36.3C19.4425 35.3299 19.4425 35.3299 19.4425 35.3298C19.4425 35.3298 19.4424 35.3298 19.4424 35.3298C19.4424 35.3298 19.4423 35.3298 19.4422 35.3298C19.4421 35.3298 19.442 35.3297 19.4418 35.3297C19.4415 35.3296 19.441 35.3295 19.4405 35.3293C19.4394 35.3291 19.4379 35.3287 19.4361 35.3283C19.4325 35.3274 19.4275 35.3261 19.4211 35.3246C19.4085 35.3215 19.3908 35.3171 19.3693 35.312C19.3267 35.3018 19.2678 35.2879 19.2044 35.2738C19.1425 35.26 19.069 35.2444 18.9992 35.2318C18.958 35.2243 18.8286 35.2 18.7 35.2V37.2ZM19.0586 37.2899C19.654 37.375 20.1213 37.539 20.4855 37.7575L21.5145 36.0425C20.8787 35.661 20.146 35.425 19.3414 35.31L19.0586 37.2899ZM20.536 37.7858C21.4664 38.2732 22.1901 38.8873 22.6877 39.6896C23.1845 40.4905 23.5 41.5499 23.5 43H25.5C25.5 41.2501 25.1155 39.8095 24.3873 38.6354C23.6599 37.4627 22.6337 36.6268 21.464 36.0142L20.536 37.7858ZM23.5 43V50.8H25.5V43H23.5ZM23.5029 50.7233L23.4029 52.0233L25.3971 52.1767L25.4971 50.8767L23.5029 50.7233ZM23.4 52.1C23.4 52.0702 23.4016 52.0501 23.4018 52.0482C23.4021 52.0434 23.4023 52.0428 23.4017 52.0477C23.4006 52.0576 23.3982 52.0761 23.3942 52.1027C23.3861 52.1558 23.374 52.2236 23.3597 52.2905C23.3526 52.3235 23.3455 52.3539 23.3387 52.3804C23.3317 52.4075 23.3262 52.4261 23.3227 52.4369C23.3183 52.4503 23.3208 52.4401 23.3323 52.4155C23.3384 52.4026 23.3512 52.3767 23.3719 52.3438C23.3826 52.3268 23.3971 52.3051 23.4158 52.2807C23.4344 52.2565 23.4598 52.2259 23.4929 52.1929L24.9071 53.6071C25.0434 53.4708 25.1149 53.3247 25.1423 53.2665C25.1784 53.1896 25.2051 53.1153 25.2242 53.0569C25.2626 52.9389 25.2929 52.8142 25.3153 52.7095C25.3385 52.6014 25.3576 52.4942 25.3714 52.4036C25.381 52.3407 25.4 52.212 25.4 52.1H23.4ZM23.2602 52.5583L22.8602 53.6583L24.7398 54.3417L25.1398 53.2417L23.2602 52.5583ZM23.8 53C23.2935 53 23.0084 53.3467 22.9583 53.4067C22.8627 53.5215 22.8005 53.638 22.7681 53.7028C22.731 53.777 22.7029 53.8451 22.6852 53.8907C22.6759 53.9146 22.6683 53.9351 22.6628 53.9508C22.6599 53.9587 22.6576 53.9654 22.6557 53.971C22.6547 53.9737 22.6539 53.9762 22.6531 53.9783C22.6528 53.9794 22.6525 53.9804 22.6521 53.9813C22.652 53.9818 22.6518 53.9822 22.6517 53.9826C22.6516 53.9828 22.6516 53.983 22.6515 53.9832C22.6515 53.9833 22.6514 53.9834 22.6514 53.9835C22.6514 53.9836 22.6513 53.9838 23.6 54.3C24.5487 54.6162 24.5486 54.6164 24.5486 54.6165C24.5486 54.6165 24.5485 54.6167 24.5485 54.6168C24.5484 54.6169 24.5484 54.6171 24.5483 54.6173C24.5482 54.6176 24.5481 54.618 24.548 54.6183C24.5478 54.6189 24.5476 54.6194 24.5474 54.6199C24.5471 54.6209 24.5468 54.6217 24.5466 54.6223C24.5462 54.6234 24.5461 54.6238 24.5462 54.6234C24.5465 54.6227 24.5476 54.6198 24.5492 54.6156C24.5509 54.6113 24.5527 54.6068 24.5545 54.6027C24.5563 54.5984 24.5572 54.5966 24.5569 54.5972C24.5569 54.5973 24.5534 54.6044 24.5461 54.6164C24.5396 54.627 24.5229 54.6533 24.4948 54.6871C24.4697 54.7171 24.412 54.7819 24.3174 54.8449C24.2218 54.9086 24.0433 55 23.8 55V53ZM22.7747 53.7353C21.6639 55.3588 19.8749 56.5 17.1 56.5V58.5C20.5251 58.5 22.9361 57.0412 24.4253 54.8647L22.7747 53.7353ZM53.9617 65.3L54.938 65.5169L54.9402 65.5065L53.9617 65.3ZM56.2617 54.4L55.2855 54.1831L55.2833 54.1935L56.2617 54.4ZM71.1617 54.4L72.1402 54.1935L72.1379 54.1831L71.1617 54.4ZM73.4617 65.3L72.4832 65.5065L72.4855 65.5169L73.4617 65.3ZM84.7617 64.3L83.7928 64.5473L83.7963 64.5611L83.8002 64.5747L84.7617 64.3ZM68.8617 2L67.8855 2.21693L67.8889 2.23216L67.8928 2.24729L68.8617 2ZM58.6617 2L59.6307 2.24729L59.6345 2.23216L59.6379 2.21693L58.6617 2ZM42.7617 64.3L43.7232 64.5747L43.7271 64.5611L43.7307 64.5473L42.7617 64.3ZM59.1617 41.1L58.1831 40.894L58.1811 40.9039L59.1617 41.1ZM61.5617 29.7L60.5845 29.4876L60.5832 29.494L61.5617 29.7ZM65.8617 29.7L64.8765 29.8713L64.8795 29.8887L64.8832 29.906L65.8617 29.7ZM68.2617 41.1L69.2424 40.9039L69.2403 40.894L68.2617 41.1ZM44.8617 68H51.7617V66H44.8617V68ZM51.7617 68C52.5216 68 53.2329 67.7009 53.7774 67.2755C54.3185 66.8527 54.7772 66.24 54.9379 65.5169L52.9855 65.0831C52.9462 65.26 52.8049 65.4973 52.5461 65.6995C52.2905 65.8991 52.0018 66 51.7617 66V68ZM54.9402 65.5065L57.2402 54.6065L55.2833 54.1935L52.9833 65.0935L54.9402 65.5065ZM57.2379 54.6169C57.2772 54.44 57.4185 54.2027 57.6774 54.0005C57.9329 53.8009 58.2216 53.7 58.4617 53.7V51.7C57.7018 51.7 56.9905 51.9991 56.4461 52.4245C55.9049 52.8473 55.4462 53.46 55.2855 54.1831L57.2379 54.6169ZM58.4617 53.7H68.9617V51.7H58.4617V53.7ZM68.9617 53.7C69.2018 53.7 69.4905 53.8009 69.7461 54.0005C70.0049 54.2027 70.1462 54.44 70.1855 54.6169L72.1379 54.1831C71.9772 53.46 71.5185 52.8473 70.9774 52.4245C70.4329 51.9991 69.7216 51.7 68.9617 51.7V53.7ZM70.1833 54.6065L72.4833 65.5065L74.4402 65.0935L72.1402 54.1935L70.1833 54.6065ZM72.4855 65.5169C72.6462 66.24 73.1049 66.8527 73.6461 67.2755C74.1905 67.7009 74.9018 68 75.6617 68V66C75.4216 66 75.1329 65.8991 74.8774 65.6995C74.6185 65.4973 74.4772 65.26 74.4379 65.0831L72.4855 65.5169ZM75.6617 68H82.6617V66H75.6617V68ZM82.6617 68C84.797 68 86.3137 66.0918 85.7232 64.0253L83.8002 64.5747C84.0098 65.3082 83.5264 66 82.6617 66V68ZM85.7307 64.0527L69.8307 1.75271L67.8928 2.24729L83.7928 64.5473L85.7307 64.0527ZM69.8379 1.78307C69.6777 1.06235 69.2219 0.453384 68.702 0.0340828C68.1831 -0.384331 67.4934 -0.700006 66.7617 -0.700006V1.29999C66.93 1.29999 67.1903 1.38432 67.4465 1.59091C67.7015 1.79661 67.8457 2.03765 67.8855 2.21693L69.8379 1.78307ZM66.7617 -0.700006H60.7617V1.29999H66.7617V-0.700006ZM60.7617 -0.700006C60.03 -0.700006 59.3403 -0.384331 58.8215 0.0340827C58.3015 0.453384 57.8457 1.06235 57.6855 1.78307L59.6379 2.21693C59.6777 2.03765 59.8219 1.79661 60.077 1.59091C60.3331 1.38432 60.5934 1.29999 60.7617 1.29999V-0.700006ZM57.6928 1.75271L41.7928 64.0527L43.7307 64.5473L59.6307 2.24729L57.6928 1.75271ZM41.8002 64.0253C41.2098 66.0918 42.7264 68 44.8617 68V66C43.997 66 43.5137 65.3082 43.7232 64.5747L41.8002 64.0253ZM60.1403 41.306L62.5403 29.906L60.5832 29.494L58.1832 40.894L60.1403 41.306ZM62.5389 29.9124C62.6715 29.3025 63.1697 28.975 63.7492 28.975C64.3247 28.975 64.7757 29.2918 64.8765 29.8713L66.8469 29.5287C66.5477 27.8082 65.0987 26.975 63.7492 26.975C62.4038 26.975 60.9519 27.7975 60.5845 29.4876L62.5389 29.9124ZM64.8832 29.906L67.2832 41.306L69.2403 40.894L66.8403 29.494L64.8832 29.906ZM67.2811 41.2961C67.3831 41.8059 67.268 42.1767 67.0941 42.4028C66.9262 42.6211 66.6316 42.8 66.1617 42.8V44.8C67.1918 44.8 68.0973 44.3789 68.6793 43.6222C69.2554 42.8733 69.4403 41.8941 69.2423 40.9039L67.2811 41.2961ZM66.1617 42.8H61.2617V44.8H66.1617V42.8ZM61.2617 42.8C60.5243 42.8 59.9598 42.2086 60.1423 41.2961L58.1811 40.9039C57.7636 42.9914 59.1991 44.8 61.2617 44.8V42.8ZM125.385 64.8V59.6H123.385V64.8H125.385ZM125.385 59.6C125.385 57.8477 123.937 56.4 122.185 56.4V58.4C122.833 58.4 123.385 58.9523 123.385 59.6H125.385ZM122.185 56.4H105.085V58.4H122.185V56.4ZM105.085 56.4C104.437 56.4 103.885 55.8477 103.885 55.2H101.885C101.885 56.9523 103.333 58.4 105.085 58.4V56.4ZM103.885 55.2V2.5H101.885V55.2H103.885ZM103.885 2.5C103.885 0.747716 102.437 -0.700006 100.685 -0.700006V1.29999C101.333 1.29999 101.885 1.85228 101.885 2.5H103.885ZM100.685 -0.700006H94.2852V1.29999H100.685V-0.700006ZM94.2852 -0.700006C92.5329 -0.700006 91.0852 0.747717 91.0852 2.5H93.0852C93.0852 1.85228 93.6374 1.29999 94.2852 1.29999V-0.700006ZM91.0852 2.5V64.8H93.0852V2.5H91.0852ZM91.0852 64.8C91.0852 66.5523 92.5329 68 94.2852 68V66C93.6374 66 93.0852 65.4477 93.0852 64.8H91.0852ZM94.2852 68H122.185V66H94.2852V68ZM122.185 68C123.937 68 125.385 66.5523 125.385 64.8H123.385C123.385 65.4477 122.833 66 122.185 66V68ZM165.327 64.8V59.6H163.327V64.8H165.327ZM165.327 59.6C165.327 57.8477 163.879 56.4 162.127 56.4V58.4C162.774 58.4 163.327 58.9523 163.327 59.6H165.327ZM162.127 56.4H145.027V58.4H162.127V56.4ZM145.027 56.4C144.379 56.4 143.827 55.8477 143.827 55.2H141.827C141.827 56.9523 143.274 58.4 145.027 58.4V56.4ZM143.827 55.2V2.5H141.827V55.2H143.827ZM143.827 2.5C143.827 0.747716 142.379 -0.700006 140.627 -0.700006V1.29999C141.274 1.29999 141.827 1.85228 141.827 2.5H143.827ZM140.627 -0.700006H134.227V1.29999H140.627V-0.700006ZM134.227 -0.700006C132.474 -0.700006 131.027 0.747717 131.027 2.5H133.027C133.027 1.85228 133.579 1.29999 134.227 1.29999V-0.700006ZM131.027 2.5V64.8H133.027V2.5H131.027ZM131.027 64.8C131.027 66.5523 132.474 68 134.227 68V66C133.579 66 133.027 65.4477 133.027 64.8H131.027ZM134.227 68H162.127V66H134.227V68ZM162.127 68C163.879 68 165.327 66.5523 165.327 64.8H163.327C163.327 65.4477 162.774 66 162.127 66V68ZM202.368 56.4H184.968V58.4H202.368V56.4ZM184.968 56.4C184.32 56.4 183.768 55.8477 183.768 55.2H181.768C181.768 56.9523 183.216 58.4 184.968 58.4V56.4ZM183.768 55.2V40H181.768V55.2H183.768ZM183.768 40C183.768 39.3523 184.32 38.8 184.968 38.8V36.8C183.216 36.8 181.768 38.2477 181.768 40H183.768ZM184.968 38.8H199.668V36.8H184.968V38.8ZM199.668 38.8C201.42 38.8 202.868 37.3523 202.868 35.6H200.868C200.868 36.2477 200.316 36.8 199.668 36.8V38.8ZM202.868 35.6V31H200.868V35.6H202.868ZM202.868 31C202.868 29.2477 201.42 27.8 199.668 27.8V29.8C200.316 29.8 200.868 30.3523 200.868 31H202.868ZM199.668 27.8H184.968V29.8H199.668V27.8ZM184.968 27.8C184.32 27.8 183.768 27.2477 183.768 26.6H181.768C181.768 28.3523 183.216 29.8 184.968 29.8V27.8ZM183.768 26.6V11.3H181.768V26.6H183.768ZM183.768 11.3C183.768 10.6523 184.32 10.1 184.968 10.1V8.09999C183.216 8.09999 181.768 9.54772 181.768 11.3H183.768ZM184.968 10.1H202.368V8.09999H184.968V10.1ZM202.368 10.1C204.12 10.1 205.568 8.65228 205.568 6.9H203.568C203.568 7.54771 203.016 8.09999 202.368 8.09999V10.1ZM205.568 6.9V2.5H203.568V6.9H205.568ZM205.568 2.5C205.568 0.747716 204.12 -0.700006 202.368 -0.700006V1.29999C203.016 1.29999 203.568 1.85228 203.568 2.5H205.568ZM202.368 -0.700006H174.268V1.29999H202.368V-0.700006ZM174.268 -0.700006C172.516 -0.700006 171.068 0.747716 171.068 2.5H173.068C173.068 1.85228 173.62 1.29999 174.268 1.29999V-0.700006ZM171.068 2.5V64.8H173.068V2.5H171.068ZM171.068 64.8C171.068 66.5523 172.516 68 174.268 68V66C173.62 66 173.068 65.4477 173.068 64.8H171.068ZM174.268 68H202.368V66H174.268V68ZM202.368 68C204.12 68 205.568 66.5523 205.568 64.8H203.568C203.568 65.4477 203.016 66 202.368 66V68ZM205.568 64.8V59.6H203.568V64.8H205.568ZM205.568 59.6C205.568 57.8477 204.12 56.4 202.368 56.4V58.4C203.016 58.4 203.568 58.9523 203.568 59.6H205.568ZM230.102 39.9L229.132 40.1425L229.145 40.1928L229.162 40.2414L230.102 39.9ZM239.402 65.5L240.372 65.2575L240.36 65.2072L240.342 65.1586L239.402 65.5ZM250.302 64L251.239 63.6489L251.238 63.6481L250.302 64ZM240.602 38.2L241.538 37.8481L241.528 37.8206L241.516 37.7939L240.602 38.2ZM241.602 35.4L242.132 36.248L242.151 36.2364L242.169 36.224L241.602 35.4ZM214.102 68H220.602V66H214.102V68ZM220.602 68C222.355 68 223.802 66.5523 223.802 64.8H221.802C221.802 65.4477 221.25 66 220.602 66V68ZM223.802 64.8V40.6H221.802V64.8H223.802ZM223.802 40.6C223.802 39.9523 224.355 39.4 225.002 39.4V37.4C223.25 37.4 221.802 38.8477 221.802 40.6H223.802ZM225.002 39.4H228.102V37.4H225.002V39.4ZM228.102 39.4C228.236 39.4 228.484 39.4713 228.736 39.6564C228.99 39.8428 229.106 40.0385 229.132 40.1425L231.072 39.6575C230.898 38.9615 230.415 38.4072 229.919 38.0436C229.421 37.6787 228.769 37.4 228.102 37.4V39.4ZM229.162 40.2414L238.462 65.8414L240.342 65.1586L231.042 39.5585L229.162 40.2414ZM238.432 65.7425C238.606 66.4385 239.09 66.9928 239.586 67.3564C240.084 67.7213 240.736 68 241.402 68V66C241.269 66 241.021 65.9287 240.769 65.7436C240.515 65.5572 240.398 65.3615 240.372 65.2575L238.432 65.7425ZM241.402 68H248.202V66H241.402V68ZM248.202 68C249.334 68 250.334 67.5258 250.932 66.676C251.533 65.8232 251.64 64.7195 251.239 63.6489L249.366 64.3511C249.565 64.8805 249.472 65.2768 249.297 65.524C249.121 65.7742 248.771 66 248.202 66V68ZM251.238 63.6481L241.538 37.8481L239.666 38.5519L249.366 64.3519L251.238 63.6481ZM241.516 37.7939C241.463 37.6741 241.439 37.393 241.587 37.006C241.732 36.6257 241.964 36.3529 242.132 36.248L241.072 34.552C240.44 34.9471 239.973 35.6243 239.718 36.294C239.465 36.957 239.342 37.8259 239.689 38.6061L241.516 37.7939ZM242.169 36.224C247.215 32.7548 249.802 28.1587 249.802 22.3H247.802C247.802 27.4413 245.59 31.4452 241.036 34.576L242.169 36.224ZM249.802 22.3V16.1H247.802V22.3H249.802ZM249.802 16.1C249.802 6.20974 240.906 -0.700006 231.002 -0.700006V1.29999C240.099 1.29999 247.802 7.59025 247.802 16.1H249.802ZM231.002 -0.700006H214.102V1.29999H231.002V-0.700006ZM214.102 -0.700006C212.35 -0.700006 210.902 0.747716 210.902 2.5H212.902C212.902 1.85228 213.455 1.29999 214.102 1.29999V-0.700006ZM210.902 2.5V64.8H212.902V2.5H210.902ZM210.902 64.8C210.902 66.5523 212.35 68 214.102 68V66C213.455 66 212.902 65.4477 212.902 64.8H210.902ZM230.402 29H225.002V31H230.402V29ZM225.002 29C224.355 29 223.802 28.4477 223.802 27.8H221.802C221.802 29.5523 223.25 31 225.002 31V29ZM223.802 27.8V11.4H221.802V27.8H223.802ZM223.802 11.4C223.802 10.7523 224.355 10.2 225.002 10.2V8.2C223.25 8.2 221.802 9.64771 221.802 11.4H223.802ZM225.002 10.2H230.502V8.2H225.002V10.2ZM230.502 10.2C232.618 10.2 234.201 10.796 235.246 11.7693C236.282 12.7343 236.902 14.1745 236.902 16.1H238.902C238.902 13.7254 238.123 11.7157 236.609 10.3057C235.104 8.90401 232.986 8.2 230.502 8.2V10.2ZM236.902 16.1V22.3H238.902V16.1H236.902ZM236.902 22.3C236.902 24.1401 236.418 25.8117 235.412 27.0059C234.431 28.1716 232.854 29 230.402 29V31C233.35 31 235.524 29.9784 236.942 28.2941C238.337 26.6383 238.902 24.4599 238.902 22.3H236.902ZM261.387 68H267.687V66H261.387V68ZM267.687 68C269.439 68 270.887 66.5523 270.887 64.8H268.887C268.887 65.4477 268.334 66 267.687 66V68ZM270.887 64.8V2.5H268.887V64.8H270.887ZM270.887 2.5C270.887 0.747716 269.439 -0.700006 267.687 -0.700006V1.29999C268.334 1.29999 268.887 1.85228 268.887 2.5H270.887ZM267.687 -0.700006H261.387V1.29999H267.687V-0.700006ZM261.387 -0.700006C259.634 -0.700006 258.187 0.747716 258.187 2.5H260.187C260.187 1.85228 260.739 1.29999 261.387 1.29999V-0.700006ZM258.187 2.5V64.8H260.187V2.5H258.187ZM258.187 64.8C258.187 66.5523 259.634 68 261.387 68V66C260.739 66 260.187 65.4477 260.187 64.8H258.187ZM301.423 30.6L300.5 30.9862L300.504 30.9939L301.423 30.6ZM289.323 1.69999L290.245 1.31378L290.242 1.30607L289.323 1.69999ZM293.523 36.6L292.597 36.9786L292.6 36.9866L293.523 36.6ZM305.723 65.7L304.8 66.0866L304.813 66.1174L304.828 66.1472L305.723 65.7ZM307.823 68H314.223V66H307.823V68ZM314.223 68C315.975 68 317.423 66.5523 317.423 64.8H315.423C315.423 65.4477 314.87 66 314.223 66V68ZM317.423 64.8V2.5H315.423V64.8H317.423ZM317.423 2.5C317.423 0.747716 315.975 -0.700006 314.223 -0.700006V1.29999C314.87 1.29999 315.423 1.85228 315.423 2.5H317.423ZM314.223 -0.700006H307.823V1.29999H314.223V-0.700006ZM307.823 -0.700006C306.07 -0.700006 304.623 0.747716 304.623 2.5H306.623C306.623 1.85228 307.175 1.29999 307.823 1.29999V-0.700006ZM304.623 2.5V29.7H306.623V2.5H304.623ZM304.623 29.7C304.623 30.9791 302.827 31.3374 302.342 30.2061L300.504 30.9939C301.819 34.0626 306.623 33.2209 306.623 29.7H304.623ZM302.345 30.2138L290.245 1.31379L288.4 2.0862L300.5 30.9862L302.345 30.2138ZM290.242 1.30607C289.994 0.726725 289.511 0.241444 289.021 -0.0904227C288.531 -0.422355 287.887 -0.700006 287.223 -0.700006V1.29999C287.358 1.29999 287.614 1.37235 287.899 1.56541C288.184 1.75855 288.352 1.97327 288.404 2.09392L290.242 1.30607ZM287.223 -0.700006H280.723V1.29999H287.223V-0.700006ZM280.723 -0.700006C278.97 -0.700006 277.523 0.747716 277.523 2.5H279.523C279.523 1.85228 280.075 1.29999 280.723 1.29999V-0.700006ZM277.523 2.5V64.8H279.523V2.5H277.523ZM277.523 64.8C277.523 66.5523 278.97 68 280.723 68V66C280.075 66 279.523 65.4477 279.523 64.8H277.523ZM280.723 68H287.123V66H280.723V68ZM287.123 68C288.875 68 290.323 66.5523 290.323 64.8H288.323C288.323 65.4477 287.77 66 287.123 66V68ZM290.323 64.8V37.4H288.323V64.8H290.323ZM290.323 37.4C290.323 36.1743 292.121 35.8144 292.597 36.9786L294.448 36.2214C293.124 32.9856 288.323 34.0257 288.323 37.4H290.323ZM292.6 36.9866L304.8 66.0866L306.645 65.3134L294.445 36.2134L292.6 36.9866ZM304.828 66.1472C305.086 66.663 305.568 67.1086 306.043 67.4153C306.522 67.7241 307.161 68 307.823 68V66C307.684 66 307.424 65.9259 307.127 65.7347C306.828 65.5414 306.659 65.337 306.617 65.2528L304.828 66.1472ZM327.207 68H333.507V66H327.207V68ZM333.507 68C335.259 68 336.707 66.5523 336.707 64.8H334.707C334.707 65.4477 334.155 66 333.507 66V68ZM336.707 64.8V2.5H334.707V64.8H336.707ZM336.707 2.5C336.707 0.747716 335.259 -0.700006 333.507 -0.700006V1.29999C334.155 1.29999 334.707 1.85228 334.707 2.5H336.707ZM333.507 -0.700006H327.207V1.29999H333.507V-0.700006ZM327.207 -0.700006C325.455 -0.700006 324.007 0.747716 324.007 2.5H326.007C326.007 1.85228 326.559 1.29999 327.207 1.29999V-0.700006ZM324.007 2.5V64.8H326.007V2.5H324.007ZM324.007 64.8C324.007 66.5523 325.455 68 327.207 68V66C326.559 66 326.007 65.4477 326.007 64.8H324.007Z" fill="black" mask="url(#path-1-outside-1_15_23)"/>
</svg>
